<svg height="492pt" viewBox="0 -72 492.0146 492" width="492pt" xmlns="http://www.w3.org/2000/svg"><path d="m124.375 246.101562v54.988282c.011719 7.730468 6.273438 13.992187 14 14h6v-68.988282zm0 0" fill="#d4e1f4"/><path d="m354.828125 129.113281h-216.453125c-7.726562.007813-13.988281 6.269531-14 14v51.160157h20v-31.160157c.011719-7.730469 6.273438-13.992187 14-14h210.453125v-6c-.011719-7.730469-6.273437-13.992187-14-14zm0 0" fill="#d4e1f4"/><g fill="#0635c9"><path d="m40.546875 272.210938h8.488281c9.574219.003906 18.378906-5.246094 22.925782-13.675782 2.441406-4.535156 7.175781-7.367187 12.328124-7.375l21.757813.144532.078125-12-21.800781-.144532c-9.574219-.003906-18.378907 5.246094-22.925781 13.671875-2.453126 4.546875-7.203126 7.378907-12.367188 7.378907h-8.660156c-3.0625-8.546876-11.855469-13.628907-20.789063-12.007813-8.929687 1.621094-15.382812 9.460937-15.25 18.539063.136719 9.078124 6.816407 16.726562 15.792969 18.082031s17.613281-3.980469 20.421875-12.613281zm-24.234375-5.761719c0-3.632813 2.945312-6.578125 6.578125-6.578125 3.636719 0 6.582031 2.945312 6.582031 6.578125 0 3.636719-2.945312 6.582031-6.582031 6.582031-3.632813-.003906-6.574219-2.949219-6.578125-6.582031zm0 0"/><path d="m66.164062 201.648438h4.269532c5.199218-.007813 9.890625 3.121093 11.882812 7.921874 3.847656 9.28125 12.914063 15.320313 22.957032 15.300782h4.566406v-12h-4.566406c-5.199219.011718-9.890626-3.117188-11.878907-7.917969-3.847656-9.28125-12.914062-15.324219-22.957031-15.308594h-4.273438c-2.933593-8.601562-11.660156-13.816406-20.625-12.328125-8.964843 1.488282-15.539062 9.242188-15.539062 18.328125 0 9.089844 6.574219 16.84375 15.539062 18.332031 8.964844 1.488282 17.691407-3.730468 20.625-12.332031zm-24.148437-6c0-3.632813 2.949219-6.578126 6.582031-6.578126 3.632813 0 6.582032 2.945313 6.582032 6.578126 0 3.636718-2.949219 6.582031-6.582032 6.582031-3.632812-.003907-6.578125-2.945313-6.582031-6.582031zm0 0"/><path d="m469.140625 247.871094c-7.84375.015625-14.835937 4.949218-17.476563 12.339844h-8.664062c-5.167969 0-9.917969-2.832032-12.371094-7.378907-4.554687-8.433593-13.375-13.6875-22.960937-13.671875l-23.628907.144532.070313 12 23.59375-.144532c5.164063-.003906 9.914063 2.832032 12.367187 7.375 4.546876 8.429688 13.351563 13.679688 22.929688 13.675782h8.484375c2.949219 9.035156 12.246094 14.386718 21.539063 12.402343 9.296874-1.984375 15.597656-10.664062 14.597656-20.117187s-8.972656-16.628906-18.480469-16.625zm0 25.160156c-3.632813 0-6.578125-2.945312-6.578125-6.582031 0-3.632813 2.945312-6.578125 6.578125-6.578125 3.636719 0 6.582031 2.945312 6.582031 6.578125-.003906 3.632812-2.949218 6.578125-6.582031 6.582031zm0 0"/><path d="m457.832031 310.601562c-7.941406.015626-15 5.066407-17.570312 12.582032h-9.253907c-7.496093-.03125-14.085937-4.964844-16.230468-12.144532-3.667969-12.277343-14.933594-20.707031-27.742188-20.757812h-8.671875v-38.179688c0-3.3125-2.683593-6-6-6-3.3125 0-6 2.6875-6 6v50.785157c-.003906 5.3125-4.308593 9.617187-9.625 9.625h-221.445312c-5.3125-.007813-9.617188-4.3125-9.625-9.625v-50.785157c0-3.3125-2.6875-6-6-6s-6 2.6875-6 6v38.179688h-8.667969c-12.8125.050781-24.078125 8.480469-27.742188 20.757812-2.144531 7.179688-8.738281 12.113282-16.230468 12.144532h-9.257813c-2.933593-8.601563-11.660156-13.816406-20.625-12.328125-8.96875 1.488281-15.542969 9.242187-15.542969 18.328125 0 9.089844 6.574219 16.84375 15.542969 18.332031 8.964844 1.488281 17.691407-3.730469 20.625-12.332031h9.257813c12.808594-.050782 24.074218-8.480469 27.742187-20.757813 2.144531-7.179687 8.734375-12.113281 16.230469-12.144531h8.667969v.601562c.015625 11.9375 9.6875 21.609376 21.625 21.625h221.445312c11.9375-.015624 21.609375-9.6875 21.625-21.621093v-.601563h8.671875c7.492188.03125 14.085938 4.964844 16.230469 12.144532 3.664063 12.273437 14.933594 20.703124 27.742187 20.753906h9.253907c3.066406 8.964844 12.382812 14.183594 21.625 12.121094 9.242187-2.0625 15.453125-10.753907 14.414062-20.167969-1.042969-9.414063-9-16.535157-18.46875-16.53125zm-423.628906 25.160157c-3.636719.003906-6.582031-2.945313-6.582031-6.578125 0-3.636719 2.945312-6.582032 6.582031-6.582032 3.632813 0 6.578125 2.945313 6.578125 6.582032-.003906 3.632812-2.945312 6.574218-6.578125 6.578125zm423.628906 0c-3.636719 0-6.578125-2.949219-6.578125-6.582031.003906-3.636719 2.949219-6.582032 6.585938-6.578126 3.632812 0 6.578125 2.949219 6.578125 6.582032-.007813 3.636718-2.953125 6.578125-6.585938 6.578125zm0 0"/><path d="m473.4375 127.886719c-7.941406.011719-15 5.066406-17.570312 12.578125h-24.328126c-9.457031.042968-17.621093 6.625-19.671874 15.855468-.832032 3.726563-4.128907 6.382813-7.945313 6.402344h-25.558594v-22.324218c-.011719-11.9375-9.6875-21.609376-21.625-21.625h-20.488281v-62.226563c-.035156-31.210937-25.328125-56.5078125-56.539062-56.5390625h-67.386719c-31.210938.03125-56.507813 25.3281255-56.539063 56.5390625v62.226563h-20.492187c-11.9375.015624-21.609375 9.6875-21.625 21.625v22.328124h-25.550781c-3.816407-.019531-7.117188-2.675781-7.945313-6.402343-2.050781-9.230469-10.21875-15.8125-19.671875-15.855469h-24.335938c-2.933593-8.597656-11.660156-13.816406-20.625-12.328125-8.964843 1.488281-15.539062 9.242187-15.539062 18.328125 0 9.089844 6.574219 16.84375 15.539062 18.332031 8.964844 1.488281 17.691407-3.730469 20.625-12.332031h24.332032c3.816406.019531 7.113281 2.675781 7.945312 6.402344 2.050782 9.230468 10.21875 15.8125 19.675782 15.855468h25.554687v14.875c0 3.3125 2.6875 6 6 6 3.316406 0 6-2.6875 6-6v-49.199218c.007813-5.3125 4.3125-9.621094 9.625-9.625h221.441406c5.316407.003906 9.621094 4.3125 9.625 9.625v49.199218c0 3.3125 2.6875 6 6 6 3.316407 0 6-2.6875 6-6v-14.875h25.558594c9.453125-.042968 17.621094-6.625 19.671875-15.855468.828125-3.726563 4.125-6.382813 7.945312-6.402344h24.328126c3.066406 8.960938 12.382812 14.179688 21.625 12.117188 9.242187-2.066407 15.449218-10.753907 14.410156-20.167969-1.039063-9.414063-8.996094-16.535157-18.464844-16.53125zm-454.839844 25.160156c-3.636718 0-6.582031-2.945313-6.582031-6.582031 0-3.632813 2.945313-6.578125 6.582031-6.578125 3.632813 0 6.582032 2.945312 6.578125 6.582031-.003906 3.628906-2.945312 6.574219-6.578125 6.578125zm305.652344-96.5v62.226563h-4.847656v-62.226563c-.027344-21.910156-17.78125-39.667969-39.691406-39.691406h-15.058594v-4.847657h15.058594c24.585937.027344 44.507812 19.953126 44.539062 44.539063zm-84.867188-39.691406v-4.847657h13.269532v4.847657zm40.328126 12c15.285156.015625 27.671874 12.402343 27.691406 27.691406v62.226563h-122.769532v-62.226563c.015626-15.289063 12.402344-27.675781 27.691407-27.691406zm-111.925782 27.691406c.027344-24.585937 19.953125-44.511719 44.539063-44.539063h15.058593v4.847657h-15.058593c-21.910157.023437-39.667969 17.78125-39.691407 39.691406v62.226563h-4.847656zm305.652344 96.5c-3.636719 0-6.582031-2.945313-6.582031-6.582031 0-3.632813 2.945312-6.582032 6.582031-6.582032 3.632812 0 6.578125 2.949219 6.578125 6.582032-.003906 3.632812-2.945313 6.578125-6.578125 6.582031zm0 0"/><path d="m409.714844 209.570312c1.992187-4.800781 6.683594-7.929687 11.882812-7.921874h4.265625c2.933594 8.601562 11.660157 13.820312 20.625 12.332031 8.96875-1.488281 15.542969-9.242188 15.542969-18.332031 0-9.085938-6.574219-16.839844-15.542969-18.328126-8.964843-1.488281-17.691406 3.726563-20.625 12.328126h-4.265625c-10.046875-.015626-19.113281 6.027343-22.957031 15.308593-1.992187 4.800781-6.683594 7.925781-11.882813 7.917969h-.816406v12h.816406c10.046876.019531 19.109376-6.023438 22.957032-15.304688zm33.714844-20.5c3.636718 0 6.582031 2.949219 6.582031 6.582032 0 3.632812-2.945313 6.582031-6.582031 6.582031-3.632813 0-6.578126-2.949219-6.578126-6.582031 0-3.636719 2.949219-6.582032 6.585938-6.582032zm0 0"/></g><path d="m376.640625 183.601562h-261.25c-8.832031.007813-15.988281 7.167969-16 16v42.5c.011719 8.832032 7.167969 15.988282 16 16h261.25c8.832031-.011718 15.992187-7.167968 16-16v-42.5c-.007813-8.832031-7.167969-15.992187-16-16zm4 58.5c0 2.207032-1.789063 4-4 4h-261.25c-2.207031 0-4-1.792968-4-4v-42.5c0-2.210937 1.792969-4 4-4h261.25c2.210937 0 4 1.789063 4 4zm0 0" fill="#1ae5be"/><path d="m147.070312 210.738281c-5.585937 0-10.113281 4.527344-10.113281 10.113281 0 5.585938 4.527344 10.113282 10.113281 10.113282 5.585938 0 10.113282-4.527344 10.113282-10.113282-.007813-5.582031-4.53125-10.105468-10.113282-10.113281zm0 12c-1.042968 0-1.886718-.84375-1.886718-1.886719 0-1.042968.84375-1.886718 1.886718-1.886718 1.042969 0 1.886719.84375 1.886719 1.886718 0 1.042969-.84375 1.886719-1.886719 1.886719zm0 0" fill="#1ae5be"/><path d="m196.542969 210.738281c-5.585938 0-10.113281 4.527344-10.113281 10.113281 0 5.585938 4.527343 10.113282 10.113281 10.113282 5.585937 0 10.113281-4.527344 10.113281-10.113282-.007812-5.582031-4.53125-10.105468-10.113281-10.113281zm0 12c-1.042969 0-1.886719-.84375-1.886719-1.886719 0-1.042968.84375-1.886718 1.886719-1.886718s1.886719.84375 1.886719 1.886718c0 1.042969-.84375 1.886719-1.886719 1.886719zm0 0" fill="#1ae5be"/><path d="m246.015625 210.738281c-5.582031 0-10.109375 4.527344-10.109375 10.113281 0 5.585938 4.527344 10.113282 10.109375 10.113282 5.585937 0 10.113281-4.527344 10.113281-10.113282-.007812-5.582031-4.53125-10.105468-10.113281-10.113281zm0 12c-1.042969 0-1.886719-.84375-1.886719-1.886719 0-1.042968.84375-1.886718 1.886719-1.886718s1.890625.84375 1.890625 1.886718c-.003906 1.042969-.847656 1.886719-1.890625 1.886719zm0 0" fill="#1ae5be"/><path d="m295.488281 210.738281c-5.582031 0-10.109375 4.527344-10.109375 10.113281 0 5.585938 4.527344 10.113282 10.109375 10.113282 5.585938 0 10.113281-4.527344 10.113281-10.113282-.007812-5.582031-4.53125-10.105468-10.113281-10.113281zm0 12c-1.042969 0-1.886719-.84375-1.886719-1.886719 0-1.042968.84375-1.886718 1.886719-1.886718s1.890625.84375 1.890625 1.886718c-.003906 1.042969-.847656 1.886719-1.890625 1.886719zm0 0" fill="#1ae5be"/><path d="m344.960938 210.738281c-5.582032 0-10.109376 4.527344-10.109376 10.113281 0 5.585938 4.527344 10.113282 10.109376 10.113282 5.585937 0 10.113281-4.527344 10.113281-10.113282-.007813-5.582031-4.53125-10.105468-10.113281-10.113281zm0 12c-1.042969 0-1.886719-.84375-1.886719-1.886719 0-1.042968.84375-1.886718 1.886719-1.886718 1.042968 0 1.890624.84375 1.890624 1.886718-.003906 1.042969-.847656 1.886719-1.890624 1.886719zm0 0" fill="#1ae5be"/></svg>