<svg height="462pt" viewBox="-28 0 462 462" width="462pt" xmlns="http://www.w3.org/2000/svg"><path d="m32 198.019531c.007812-7.726562 6.273438-13.988281 14-14h277.449219v-6c-.007813-7.726562-6.269531-13.988281-14-14h-283.449219c-7.726562.011719-13.992188 6.273438-14 14v207.980469c.007812 7.730469 6.269531 13.992188 14 14h6zm0 0" fill="#d4e1f4"/><g fill="#0635c9"><path d="m210.851562 0h-86.253906c-39.023437.0429688-70.644531 31.667969-70.691406 70.691406v81.328125h-27.90625c-14.351562.015625-25.984375 11.648438-26 26v207.980469c.015625 14.351562 11.648438 25.984375 26 26h236.355469c3.3125 0 6-2.6875 6-6s-2.6875-6-6-6h-236.355469c-7.730469-.007812-13.992188-6.269531-14-14v-207.980469c.007812-7.726562 6.273438-13.988281 14-14h283.449219c7.730469.011719 13.992187 6.273438 14 14v137.980469c0 3.3125 2.6875 6 6 6 3.316406 0 6-2.6875 6-6v-137.980469c-.015625-14.351562-11.644531-25.984375-26-26h-27.910157v-81.328125c-.042968-39.023437-31.664062-70.6484372-70.6875-70.691406zm58.6875 70.691406v81.328125h-9.5625v-81.328125c-.03125-27.121094-22.003906-49.097656-49.125-49.128906h-20.953124v-9.5625h20.953124c32.398438.035156 58.652344 26.292969 58.6875 58.691406zm-111.984374-49.128906v-9.5625h20.34375v9.5625zm53.296874 12c20.496094.023438 37.105469 16.632812 37.125 37.128906v81.328125h-160.503906v-81.328125c.023438-20.496094 16.632813-37.105468 37.125-37.128906zm-144.945312 37.128906c.039062-32.398437 26.292969-58.65625 58.691406-58.691406h20.957032v9.5625h-20.957032c-27.117187.03125-49.09375 22.007812-49.125 49.128906v81.328125h-9.566406zm0 0"/><path d="m127.304688 283.011719c0 6.449219 5.226562 11.675781 11.675781 11.675781 6.445312 0 11.675781-5.230469 11.671875-11.675781 0-6.449219-5.226563-11.675781-11.675782-11.675781-6.441406.007812-11.664062 5.230468-11.671874 11.675781zm12 0c0 .132812-.078126.25-.203126.300781-.121093.050781-.261718.023438-.355468-.070312-.089844-.09375-.121094-.234376-.070313-.355469.050781-.121094.171875-.199219.300781-.199219.179688 0 .328126.144531.328126.324219zm0 0"/><path d="m184.796875 283.011719c0 6.445312 5.226563 11.675781 11.675781 11.675781 6.449219 0 11.675782-5.230469 11.675782-11.675781 0-6.449219-5.226563-11.675781-11.675782-11.675781-6.445312.007812-11.667968 5.230468-11.675781 11.675781zm12 0c0 .132812-.078125.25-.199219.300781-.125.050781-.265625.023438-.355468-.070312-.09375-.09375-.121094-.234376-.070313-.355469.050781-.121094.167969-.199219.300781-.199219.179688 0 .324219.144531.324219.324219zm0 0"/><path d="m242.289062 283.011719c0 6.445312 5.230469 11.675781 11.675782 11.675781 6.449218 0 11.675781-5.230469 11.675781-11.675781 0-6.449219-5.226563-11.675781-11.675781-11.675781-6.445313.007812-11.667969 5.230468-11.675782 11.675781zm12 0c.003907.132812-.078124.25-.199218.300781s-.261719.023438-.355469-.070312-.121094-.234376-.070313-.355469c.050782-.121094.167969-.199219.300782-.199219.179687 0 .324218.144531.324218.324219zm0 0"/><path d="m69.808594 283.011719c0 6.445312 5.226562 11.675781 11.675781 11.675781s11.675781-5.230469 11.675781-11.675781c0-6.449219-5.226562-11.675781-11.675781-11.675781-6.445313.007812-11.667969 5.230468-11.675781 11.675781zm12 0c0 .179687-.144532.324219-.324219.324219s-.324219-.144532-.324219-.324219c0-.179688.144532-.324219.324219-.324219s.324219.144531.324219.324219zm0 0"/></g><path d="m274.605469 382.460938c-1.542969 2.109374-1.542969 4.96875 0 7.078124.984375 1.351563 24.5 33.050782 54.84375 33.050782 30.347656 0 53.859375-31.703125 54.84375-33.050782 1.542969-2.109374 1.542969-4.96875 0-7.078124-.984375-1.351563-24.5-33.050782-54.84375-33.050782s-53.859375 31.699219-54.84375 33.050782zm97.121093 3.546874c-6.507812 7.5625-23.265624 24.582032-42.277343 24.582032-18.941407 0-35.753907-17.039063-42.277344-24.601563 6.507813-7.5625 23.265625-24.582031 42.277344-24.582031 18.941406.003906 35.75 17.039062 42.277343 24.601562zm0 0" fill="#1ae5be"/><path d="m308.066406 386c0 11.808594 9.574219 21.382812 21.382813 21.382812 11.8125 0 21.386719-9.574218 21.386719-21.382812-.003907-11.8125-9.574219-21.386719-21.386719-21.386719-11.804688.015625-21.371094 9.582031-21.382813 21.386719zm30.769532 0c-.003907 5.183594-4.203126 9.382812-9.386719 9.382812-5.183594 0-9.382813-4.203124-9.382813-9.382812 0-5.183594 4.199219-9.386719 9.382813-9.386719 5.179687.011719 9.375 4.207031 9.386719 9.386719zm0 0" fill="#1ae5be"/><path d="m329.449219 310c-41.972657 0-76 34.027344-76 76s34.027343 76 76 76c41.972656 0 76-34.027344 76-76-.046875-41.953125-34.046875-75.953125-76-76zm0 140c-35.34375 0-64-28.652344-64-64s28.65625-64 64-64c35.347656 0 64 28.652344 64 64-.039063 35.328125-28.667969 63.960938-64 64zm0 0" fill="#1ae5be"/></svg>