<svg height="412pt" viewBox="-19 0 411 412" width="412pt" xmlns="http://www.w3.org/2000/svg"><path d="m50.773438 198.019531c.011718-7.726562 6.273437-13.988281 14-14h277.453124v-6c-.011718-7.726562-6.273437-13.988281-14-14h-283.453124c-7.726563.011719-13.988282 6.273438-14 14v56.980469h20zm0 0" fill="#d4e1f4"/><path d="m50.773438 386v-59h-20v59c.011718 7.726562 6.273437 13.992188 14 14h20c-7.726563-.007812-13.988282-6.273438-14-14zm0 0" fill="#d4e1f4"/><path d="m32.5 311v-60c0-2.210938 1.789062-4 4-4h-20c-2.210938 0-4 1.789062-4 4v60c0 2.210938 1.789062 4 4 4h20c-2.210938 0-4-1.789062-4-4zm0 0" fill="#d4e1f4"/><path d="m354.226562 178.019531c-.015624-14.351562-11.648437-25.984375-26-26h-27.910156v-81.328125c-.042968-39.023437-31.667968-70.6484372-70.6875-70.691406h-86.257812c-39.019532.0429688-70.644532 31.667969-70.6875 70.691406v81.328125h-27.910156c-14.351563.015625-25.984376 11.648438-26 26v62.980469c0 3.3125 2.6875 6 6 6 3.316406 0 6-2.6875 6-6v-62.980469c.011718-7.726562 6.273437-13.988281 14-14h283.453124c7.726563.011719 13.988282 6.273438 14 14v62.980469c0 3.3125 2.683594 6 6 6 3.3125 0 6-2.6875 6-6zm-65.910156-107.328125v81.328125h-9.5625v-81.328125c-.03125-27.121094-22.007812-49.097656-49.125-49.128906h-20.957031v-9.5625h20.957031c32.394532.035156 58.652344 26.292969 58.6875 58.691406zm-111.988281-49.128906v-9.5625h20.34375v9.5625zm53.300781 12c20.492188.023438 37.101563 16.632812 37.125 37.128906v81.328125h-160.507812v-81.328125c.023437-20.496094 16.632812-37.105468 37.125-37.128906zm-144.945312 37.128906c.035156-32.398437 26.292968-58.65625 58.6875-58.691406h20.957031v9.5625h-20.957031c-27.117188.03125-49.09375 22.007812-49.125 49.128906v81.328125h-9.5625zm0 0" fill="#0635c9"/><path d="m354.226562 386v-65c0-3.3125-2.6875-6-6-6-3.316406 0-6 2.6875-6 6v65c-.011718 7.726562-6.273437 13.992188-14 14h-283.453124c-7.726563-.007812-13.988282-6.273438-14-14v-65c0-3.3125-2.683594-6-6-6-3.3125 0-6 2.6875-6 6v65c.015624 14.351562 11.648437 25.984375 26 26h283.453124c14.351563-.015625 25.984376-11.648438 26-26zm0 0" fill="#0635c9"/><g fill="#1ae5be"><path d="m356.5 235h-340c-8.832031.011719-15.988281 7.167969-16 16v60c.011719 8.832031 7.167969 15.988281 16 16h340c8.832031-.011719 15.988281-7.167969 16-16v-60c-.011719-8.832031-7.167969-15.988281-16-16zm4 76c0 2.210938-1.789062 4-4 4h-340c-2.210938 0-4-1.789062-4-4v-60c0-2.210938 1.789062-4 4-4h340c2.210938 0 4 1.789062 4 4zm0 0"/><path d="m59.847656 269.738281c-6.21875 0-11.261718 5.042969-11.261718 11.261719s5.042968 11.261719 11.261718 11.261719c6.222656 0 11.265625-5.042969 11.265625-11.261719-.007812-6.21875-5.046875-11.253906-11.265625-11.261719zm0 12c-.40625 0-.734375-.332031-.734375-.738281s.328125-.738281.734375-.738281c.410156 0 .738282.332031.738282.738281s-.332032.738281-.738282.738281zm0 0"/><path d="m123.175781 269.738281c-6.222656 0-11.265625 5.042969-11.265625 11.261719s5.042969 11.261719 11.265625 11.261719c6.21875 0 11.261719-5.042969 11.261719-11.261719-.007812-6.21875-5.046875-11.253906-11.261719-11.261719zm0 12c-.40625 0-.738281-.332031-.738281-.738281s.328125-.738281.734375-.738281c.410156 0 .738281.332031.738281.738281s-.328125.734375-.734375.738281zm0 0"/><path d="m186.5 269.738281c-6.21875 0-11.261719 5.042969-11.261719 11.261719s5.042969 11.261719 11.261719 11.261719 11.261719-5.042969 11.261719-11.261719c-.007813-6.21875-5.042969-11.253906-11.261719-11.261719zm0 12c-.40625 0-.738281-.332031-.738281-.738281s.332031-.738281.738281-.738281.738281.332031.738281.738281-.332031.738281-.738281.738281zm0 0"/><path d="m249.824219 269.738281c-6.21875 0-11.261719 5.042969-11.261719 11.261719 0 6.222656 5.042969 11.261719 11.265625 11.261719 6.21875 0 11.261719-5.042969 11.261719-11.261719-.007813-6.21875-5.046875-11.257812-11.265625-11.261719zm0 12c-.40625 0-.734375-.332031-.734375-.738281s.328125-.738281.734375-.738281.738281.332031.738281.738281-.332031.738281-.738281.738281zm0 0"/><path d="m313.152344 269.738281c-6.222656 0-11.265625 5.042969-11.265625 11.261719s5.042969 11.261719 11.265625 11.261719c6.21875 0 11.261718-5.042969 11.261718-11.261719-.007812-6.21875-5.046874-11.253906-11.261718-11.261719zm0 12c-.410156 0-.738282-.332031-.738282-.738281s.328126-.738281.738282-.738281c.40625 0 .734375.332031.734375.738281s-.328125.738281-.734375.738281zm0 0"/></g></svg>